<?xml version="1.0" encoding="UTF-8"?>
<svg version="1.1" xmlns="http://www.w3.org/2000/svg" width="225" height="225">
<path d="M0 0 C5.39798735 0.87180111 9.69805208 3.09241685 14.53051758 5.58349609 C16.04007271 6.34214462 16.04007271 6.34214462 17.5801239 7.11611938 C19.69880509 8.18401064 21.81413597 9.25857172 23.92626953 10.33935547 C27.16693453 11.99740418 30.41689802 13.63588921 33.66918945 15.27099609 C35.72769817 16.31154378 37.78566051 17.35317322 39.84301758 18.39599609 C40.81692947 18.88877045 41.79084137 19.3815448 42.79426575 19.88925171 C43.69247543 20.34957794 44.59068512 20.80990417 45.51611328 21.28417969 C46.30774368 21.68833099 47.09937408 22.0924823 47.91499329 22.50888062 C49.85473633 23.62255859 49.85473633 23.62255859 51.85473633 25.62255859 C52.08178711 28.6953125 52.08178711 28.6953125 52.05004883 32.59912109 C52.04721893 33.28436859 52.04438904 33.96961609 52.04147339 34.67562866 C52.03026914 36.86644886 52.00516492 39.05686175 51.97973633 41.24755859 C51.96970681 42.73192769 51.96058091 44.2163032 51.95239258 45.70068359 C51.93032927 49.3414412 51.89579808 52.98196016 51.85473633 56.62255859 C47.69797516 56.00218223 44.47836786 54.5961885 40.74926758 52.68115234 C39.60135742 52.09785156 38.45344727 51.51455078 37.27075195 50.91357422 C36.06931976 50.29624205 34.86815066 49.67839759 33.66723633 49.06005859 C31.30114946 47.84557057 28.93224886 46.63709296 26.56176758 45.43115234 C25.51480713 44.89288818 24.46784668 44.35462402 23.38916016 43.80004883 C21.01820278 42.4821103 21.01820278 42.4821103 18.85473633 42.62255859 C18.85473633 57.47255859 18.85473633 72.32255859 18.85473633 87.62255859 C25.12473633 90.92255859 31.39473633 94.22255859 37.85473633 97.62255859 C50.69684159 104.46466386 50.69684159 104.46466386 51.85473633 105.62255859 C51.94264608 107.91407277 51.96167671 110.20828384 51.95239258 112.50146484 C51.95097763 113.18812729 51.94956268 113.87478973 51.94810486 114.58226013 C51.94249112 116.7832366 51.9299364 118.98411268 51.91723633 121.18505859 C51.91222309 122.67398942 51.90765988 124.16292184 51.90356445 125.65185547 C51.89251726 129.30878934 51.87524346 132.96566418 51.85473633 136.62255859 C48.1333115 136.01796859 45.13693507 134.95923863 41.76074219 133.29345703 C40.27911842 132.56699982 40.27911842 132.56699982 38.76756287 131.8258667 C37.71222855 131.29986877 36.65689423 130.77387085 35.56958008 130.23193359 C34.47633926 129.69030579 33.38309845 129.14867798 32.25672913 128.59063721 C29.94789371 127.44380727 27.64067279 126.29372203 25.33496094 125.140625 C21.80821154 123.38053134 18.27232294 121.63984122 14.7355957 119.89990234 C12.49217019 118.78259054 10.24931207 117.66413864 8.00708008 116.54443359 C6.42104225 115.76758209 6.42104225 115.76758209 4.80296326 114.97503662 C-1.35045934 111.86948337 -5.86110827 109.47502478 -8.14526367 102.62255859 C-8.24299832 101.28861234 -8.28860816 99.95042574 -8.29916382 98.61294556 C-8.30776428 97.79987442 -8.31636475 96.98680328 -8.32522583 96.14909363 C-8.32948578 95.26071304 -8.33374573 94.37233246 -8.33813477 93.45703125 C-8.34631226 92.51852829 -8.35448975 91.58002533 -8.36291504 90.61308289 C-8.38774863 87.50426878 -8.4042779 84.39550021 -8.41870117 81.28662109 C-8.42402485 80.22545452 -8.42934853 79.16428795 -8.43483353 78.07096481 C-8.46155339 72.45665967 -8.48093399 66.8423767 -8.49536133 61.22802734 C-8.51202672 55.42491399 -8.556824 49.62236659 -8.60773277 43.81946754 C-8.64135433 39.36023288 -8.65293305 34.90113358 -8.65858841 30.44178391 C-8.66531252 28.30231769 -8.6805645 26.16286073 -8.70447922 24.02351761 C-8.73603038 21.03083044 -8.73618272 18.03968421 -8.72875977 15.046875 C-8.7451651 14.16254288 -8.76157043 13.27821075 -8.7784729 12.36708069 C-8.73375697 7.96610759 -8.5664573 6.17159599 -5.80537415 2.57244873 C-3.14526367 0.62255859 -3.14526367 0.62255859 0 0 Z " fill="#0F76A6" transform="translate(58.145263671875,31.37744140625)"/>
<path d="M0 0 C2.68399148 2.12619374 3.47613642 3.75278976 3.875 7.125 C4.25249669 11.52675381 3.28070207 14.6489974 1.703125 18.71484375 C0.5346802 22.51228936 0.81215523 26.05525991 1 30 C1.99 30.33 2.98 30.66 4 31 C6.72183391 28.35593277 9.17253988 25.79445938 11.4375 22.75 C14 20 14 20 17.0625 18.875 C20 19 20 19 22.375 20.25 C24.98370563 24.6647326 24.59603968 29.00139453 24 34 C23.31472403 36.39101725 22.48952554 38.67507405 21.609375 41 C20.71448985 43.93705896 21.12304287 46.09929566 22 49 C22.34160156 49.61488281 22.68320313 50.22976562 23.03515625 50.86328125 C25.70030775 56.76545885 23.94397267 63.16808199 22 69 C21.37675708 75.87062971 21.37675708 75.87062971 24 82 C24.96936434 89.07861398 24.28935216 94.28086378 20 100 C18.1875 102 18.1875 102 16 103 C12.375 102.875 12.375 102.875 9 102 C6.16178292 97.74267439 6.47231747 94.0015127 7 89 C7.97063483 86.65429915 8.96898053 84.31979381 10 82 C10.57902347 78.13984351 10.60067704 74.97610019 8.5 71.5625 C6.27229214 67.75683241 6.43673049 64.31117815 7 60 C7.67065169 57.91481283 8.4734712 55.93756793 9.328125 53.921875 C10.37918887 50.91534347 10.25108156 48.13851945 10 45 C9.67 44.34 9.34 43.68 9 43 C5.98511576 43.89631694 4.28197778 44.67912874 2.1875 47.0625 C0.55056042 51.11177159 0.39135208 54.6855337 1 59 C1.515625 59.969375 2.03125 60.93875 2.5625 61.9375 C4.67275039 66.43325083 4.13772508 70.24012975 3 75 C0.78188611 79.35700943 -1.43467368 82.10705982 -6 84 C-8.625 84 -8.625 84 -11 83 C-13.35893431 80.23435287 -13.95829443 78.36144829 -14.375 74.75 C-13.98954651 70.89546507 -12.98770147 67.89509276 -11.66796875 64.2890625 C-10.6420907 60.7734804 -10.80145102 57.64006464 -11 54 C-12.485 53.505 -12.485 53.505 -14 53 C-16.72183391 55.64406723 -19.17253988 58.20554062 -21.4375 61.25 C-24 64 -24 64 -27.0625 65.125 C-30 65 -30 65 -32.375 63.75 C-34.99119045 59.32260078 -34.69742679 55.0062814 -34 50 C-32.49905138 45.45322394 -31.01676573 42.67784382 -27 40 C-23.29455413 39.80149397 -20.52994613 39.82335129 -17 41 C-12.797256 37.01278133 -11.13627356 35.07817174 -10.75 29.1875 C-10.76698648 26.06765055 -11.01260855 24.97680026 -12.5625 22.125 C-14.64815761 17.59096172 -14.1520888 13.78739604 -13 9 C-10.05463901 3.41397054 -6.77827 -1.04281077 0 0 Z " fill="#5AA8C3" transform="translate(150,41)"/>
<path d="M0 0 C3.22359796 2.78797662 3.93523552 4.51426639 4.5 8.75 C4.17655289 14.25903462 2.4502876 19.62855828 -1.578125 23.52734375 C-3.97765431 25.1324343 -6.09111948 26.09725375 -9.0078125 25.78515625 C-10.9375 25.25 -10.9375 25.25 -14 24 C-16.72657838 26.64867614 -19.29129572 29.29753401 -21.6875 32.25 C-24.34116592 35.40571083 -24.92016189 35.88512361 -28.9375 36.3125 C-32 36 -32 36 -33.8125 34.5 C-35.90003129 30.10519729 -36.63724512 26.29634483 -35.33984375 21.62109375 C-33.44938883 16.97531991 -31.53235637 13.48200468 -27 11 C-23.94185688 10.68794458 -21.80318528 10.68359368 -18.9375 11.8125 C-18.298125 11.874375 -17.65875 11.93625 -17 12 C-14.07768625 9.52727298 -11.73566194 6.69342907 -9.3125 3.75 C-6.32649174 0.19907126 -4.60552204 -0.65793172 0 0 Z " fill="#5AA8C3" transform="translate(150,129)"/>
<path d="M0 0 C1.4583982 0.00399197 2.91679743 0.01875035 4.375 0.04296875 C5.11234375 0.04361328 5.8496875 0.04425781 6.609375 0.04492188 C12.09398191 0.08995971 12.09398191 0.08995971 14.375 1.23046875 C14.39965622 5.48461498 14.41783899 9.73872373 14.42993164 13.99291992 C14.43497101 15.44116948 14.44180253 16.88941392 14.45043945 18.33764648 C14.46252247 20.41521463 14.46823211 22.49271572 14.47265625 24.5703125 C14.48051147 26.44771118 14.48051147 26.44771118 14.48852539 28.36303711 C14.375 31.23046875 14.375 31.23046875 13.375 32.23046875 C10.55083618 32.35709966 7.76205207 32.41567423 4.9375 32.41796875 C4.14794922 32.43021484 3.35839844 32.44246094 2.54492188 32.45507812 C0.48692565 32.46034154 -1.57062009 32.3525316 -3.625 32.23046875 C-6.38444605 29.4710227 -5.88305677 27.83810177 -5.890625 23.98046875 C-5.89320312 22.73265625 -5.89578125 21.48484375 -5.8984375 20.19921875 C-5.89070313 18.88953125 -5.88296875 17.57984375 -5.875 16.23046875 C-5.88273437 14.92078125 -5.89046875 13.61109375 -5.8984375 12.26171875 C-5.89585938 11.01390625 -5.89328125 9.76609375 -5.890625 8.48046875 C-5.88836914 7.330625 -5.88611328 6.18078125 -5.88378906 4.99609375 C-5.47260075 0.60180961 -4.31832229 0.27454851 0 0 Z M3.375 7.23046875 C3.375 13.17046875 3.375 19.11046875 3.375 25.23046875 C4.365 25.23046875 5.355 25.23046875 6.375 25.23046875 C6.375 19.29046875 6.375 13.35046875 6.375 7.23046875 C5.385 7.23046875 4.395 7.23046875 3.375 7.23046875 Z " fill="#17729E" transform="translate(78.625,180.76953125)"/>
<path d="M0 0 C2.949375 -0.020625 5.89875 -0.04125 8.9375 -0.0625 C9.86812256 -0.071604 10.79874512 -0.08070801 11.75756836 -0.09008789 C12.48596924 -0.09258545 13.21437012 -0.09508301 13.96484375 -0.09765625 C14.7137085 -0.10289307 15.46257324 -0.10812988 16.23413086 -0.11352539 C18 0 18 0 19 1 C19.0731351 3.12384328 19.08360924 5.25000272 19.0625 7.375 C19.05347656 8.53773438 19.04445313 9.70046875 19.03515625 10.8984375 C19.02355469 11.92195312 19.01195313 12.94546875 19 14 C19 16.10680343 19.01285017 18.21362716 19.03515625 20.3203125 C19.04417969 21.57585937 19.05320312 22.83140625 19.0625 24.125 C19.07410156 25.38570312 19.08570312 26.64640625 19.09765625 27.9453125 C19 31 19 31 18 32 C16.65732587 32.08631874 15.31025678 32.10706473 13.96484375 32.09765625 C12.87224243 32.09390991 12.87224243 32.09390991 11.75756836 32.09008789 C10.8269458 32.08098389 9.89632324 32.07187988 8.9375 32.0625 C4.5134375 32.0315625 4.5134375 32.0315625 0 32 C0 21.44 0 10.88 0 0 Z M8 7 C8 8.65 8 10.3 8 12 C8.99 12 9.98 12 11 12 C11 10.35 11 8.7 11 7 C10.01 7 9.02 7 8 7 Z M8 19 C8 20.98 8 22.96 8 25 C9.32 25 10.64 25 12 25 C12 23.35 12 21.7 12 20 C10.68 19.67 9.36 19.34 8 19 Z " fill="#15729F" transform="translate(97,181)"/>
<path d="M0 0 C0.68964844 -0.00386719 1.37929687 -0.00773438 2.08984375 -0.01171875 C7.24666707 -0.00166646 7.24666707 -0.00166646 9.5 1.125 C9.5 4.425 9.5 7.725 9.5 11.125 C6.21023192 12.22158936 4.78696233 11.92453138 1.5 11.125 C1.5 9.805 1.5 8.485 1.5 7.125 C0.51 7.125 -0.48 7.125 -1.5 7.125 C0.2851624 10.9184701 2.15018042 12.60781732 5.625 14.75 C8.35357984 16.67104059 9.34705601 17.61249057 10.3125 20.84765625 C11.09143914 28.2378413 11.09143914 28.2378413 8.5 32.125 C5.74858808 32.37405022 3.24330188 32.45173572 0.5 32.375 C-0.60601562 32.36726563 -0.60601562 32.36726563 -1.734375 32.359375 C-7.19055451 32.27972274 -7.19055451 32.27972274 -9.5 31.125 C-9.94921875 29.12890625 -9.94921875 29.12890625 -10.1875 26.6875 C-10.27386719 25.88441406 -10.36023438 25.08132812 -10.44921875 24.25390625 C-10.5 22.125 -10.5 22.125 -9.5 20.125 C-7.19 20.125 -4.88 20.125 -2.5 20.125 C-2.17 21.775 -1.84 23.425 -1.5 25.125 C-0.51 25.125 0.48 25.125 1.5 25.125 C1.5 23.805 1.5 22.485 1.5 21.125 C0.79875 20.898125 0.0975 20.67125 -0.625 20.4375 C-4.59212838 18.62641965 -8.4989082 16.1271836 -10.5 12.125 C-10.46326111 10.26827305 -10.34910761 8.41254532 -10.1875 6.5625 C-10.10886719 5.57121094 -10.03023437 4.57992187 -9.94921875 3.55859375 C-9.80097656 2.75550781 -9.65273437 1.95242187 -9.5 1.125 C-6.46570323 -0.39214839 -3.32398333 -0.01863916 0 0 Z " fill="#0F76A5" transform="translate(141.5,180.875)"/>
<path d="M0 0 C0.79792969 0.00386719 1.59585938 0.00773438 2.41796875 0.01171875 C3.21589844 0.00785156 4.01382813 0.00398437 4.8359375 0 C10.79136108 0.01011108 10.79136108 0.01011108 11.91796875 1.13671875 C11.99002386 2.82280841 12.00182943 4.51172534 11.98046875 6.19921875 C11.97144531 7.11832031 11.96242187 8.03742188 11.953125 8.984375 C11.94152344 9.69464844 11.92992187 10.40492188 11.91796875 11.13671875 C8.62820067 12.23330811 7.20493108 11.93625013 3.91796875 11.13671875 C3.91796875 9.81671875 3.91796875 8.49671875 3.91796875 7.13671875 C2.92796875 7.13671875 1.93796875 7.13671875 0.91796875 7.13671875 C0.91796875 8.45671875 0.91796875 9.77671875 0.91796875 11.13671875 C1.45421875 11.38421875 1.99046875 11.63171875 2.54296875 11.88671875 C5.8164141 13.60958473 9.2866949 15.5054449 11.91796875 18.13671875 C12.04311803 20.11291322 12.09369635 22.09410048 12.10546875 24.07421875 C12.11964844 25.15574219 12.13382813 26.23726562 12.1484375 27.3515625 C11.91796875 30.13671875 11.91796875 30.13671875 9.91796875 32.13671875 C7.17311282 32.2817957 4.53316332 32.32324298 1.79296875 32.26171875 C1.03886719 32.25269531 0.28476563 32.24367187 -0.4921875 32.234375 C-2.35560379 32.21078745 -4.21885718 32.17491594 -6.08203125 32.13671875 C-8.10128971 27.6743117 -8.02872427 24.96485316 -7.08203125 20.13671875 C-4.77203125 20.13671875 -2.46203125 20.13671875 -0.08203125 20.13671875 C0.24796875 21.78671875 0.57796875 23.43671875 0.91796875 25.13671875 C1.90796875 25.13671875 2.89796875 25.13671875 3.91796875 25.13671875 C3.91796875 23.81671875 3.91796875 22.49671875 3.91796875 21.13671875 C3.21671875 20.90984375 2.51546875 20.68296875 1.79296875 20.44921875 C-5.16230875 17.27398337 -5.16230875 17.27398337 -7.08203125 14.13671875 C-7.65159867 9.75749753 -7.57141434 5.52258237 -7.08203125 1.13671875 C-5.19650595 -0.74880655 -2.50434294 0.00425186 0 0 Z " fill="#226F93" transform="translate(162.08203125,180.86328125)"/>
<path d="M0 0 C0.73734375 0.00773438 1.4746875 0.01546875 2.234375 0.0234375 C3.34039062 0.01183594 3.34039062 0.01183594 4.46875 0 C9.9810554 0.0201179 9.9810554 0.0201179 12.234375 2.2734375 C12.4296875 4.65625 12.4296875 4.65625 12.359375 7.3984375 C12.34132813 8.30851563 12.32328125 9.21859375 12.3046875 10.15625 C12.28148438 10.85492188 12.25828125 11.55359375 12.234375 12.2734375 C9.594375 12.2734375 6.954375 12.2734375 4.234375 12.2734375 C3.904375 10.6234375 3.574375 8.9734375 3.234375 7.2734375 C2.244375 7.2734375 1.254375 7.2734375 0.234375 7.2734375 C0.234375 13.2134375 0.234375 19.1534375 0.234375 25.2734375 C1.224375 24.9434375 2.214375 24.6134375 3.234375 24.2734375 C3.234375 22.9534375 3.234375 21.6334375 3.234375 20.2734375 C6.204375 20.2734375 9.174375 20.2734375 12.234375 20.2734375 C12.28832978 21.89807592 12.32714695 23.52322291 12.359375 25.1484375 C12.38257812 26.05335938 12.40578125 26.95828125 12.4296875 27.890625 C12.234375 30.2734375 12.234375 30.2734375 10.234375 32.2734375 C7.52514699 32.47195852 4.94134321 32.55183227 2.234375 32.5234375 C1.49703125 32.53117187 0.7596875 32.53890625 0 32.546875 C-5.5123054 32.5267571 -5.5123054 32.5267571 -7.765625 30.2734375 C-8.02441406 27.5078125 -8.02441406 27.5078125 -8.03125 24.0234375 C-8.03382812 22.775625 -8.03640625 21.5278125 -8.0390625 20.2421875 C-8.03132813 18.9325 -8.02359375 17.6228125 -8.015625 16.2734375 C-8.02335937 14.96375 -8.03109375 13.6540625 -8.0390625 12.3046875 C-8.03648438 11.056875 -8.03390625 9.8090625 -8.03125 8.5234375 C-8.02899414 7.37359375 -8.02673828 6.22375 -8.02441406 5.0390625 C-7.52711269 -0.27549406 -4.69129107 0.0171215 0 0 Z " fill="#1B749C" transform="translate(57.765625,180.7265625)"/>
<path d="M0 0 C2.875 1.375 2.875 1.375 4.25 3 C5.90142626 9.2754198 5.20488914 14.0361709 2.07421875 19.60546875 C0.28911606 22.23951279 -1.32806519 23.84334522 -4.125 25.375 C-7.25 25.5 -7.25 25.5 -10.125 24.375 C-12.75333438 20.98360079 -13.36391783 18.184682 -13.125 14 C-12.37571588 9.13377016 -10.40140073 5.0576391 -7.125 1.375 C-4.19790674 -0.49718044 -3.52641464 -0.70528293 0 0 Z " fill="#5AA7C3" transform="translate(127.125,110.625)"/>
<path d="M0 0 C2.03667615 1.54506466 2.86073078 2.72146156 4 5 C4.49107204 12.24331252 3.29585571 17.08364275 -1.3125 22.9375 C-4 25 -4 25 -7.125 25.5625 C-10 25 -10 25 -11.8125 23.5 C-13.90019247 19.10485795 -14.66809725 15.28579341 -13.3046875 10.62109375 C-10.5384184 4.01036406 -7.9931926 -1.19047549 0 0 Z " fill="#5AA7C3" transform="translate(128,52)"/>
<path d="M0 0 C2.90262115 2.9710792 3.43170922 5.21841701 3.4375 9.3125 C3.25794505 15.7166265 1.50289133 19.23818888 -2.8125 24 C-6.14699521 25.52434067 -8.5234934 24.90131653 -12 24 C-14.85432005 19.71851993 -14.60961421 16.02560003 -14 11 C-12.72087829 7.07032712 -10.94729211 4.01044492 -8.125 1 C-5.18946023 -0.38143048 -3.20061317 -0.47668707 0 0 Z " fill="#5AA8C4" transform="translate(171,31)"/>
<path d="M0 0 C0 4.29 0 8.58 0 13 C-9.98057892 18.3064164 -19.98777709 23.56173147 -30.0625 28.6875 C-30.92456055 29.13335449 -31.78662109 29.57920898 -32.67480469 30.03857422 C-33.4743457 30.44221191 -34.27388672 30.84584961 -35.09765625 31.26171875 C-36.15738647 31.80252075 -36.15738647 31.80252075 -37.23852539 32.35424805 C-37.81981201 32.56734619 -38.40109863 32.78044434 -39 33 C-39.66 32.67 -40.32 32.34 -41 32 C-34.50636336 25.94026995 -27.76894994 20.36468065 -20.75390625 14.9296875 C-18.08903263 12.86258882 -15.45682818 10.76021467 -12.83984375 8.6328125 C-12.15688232 8.07891846 -11.4739209 7.52502441 -10.77026367 6.9543457 C-9.44319322 5.87585038 -8.11903529 4.79375941 -6.7980957 3.70776367 C-2.22175805 0 -2.22175805 0 0 0 Z " fill="#5AA5C0" transform="translate(156,18)"/>
<path d="M0 0 C4.9876913 3.17185994 9.47255132 6.76945584 14 10.5625 C20.11250309 15.65202355 26.27997621 20.64468067 32.62109375 25.44750977 C35.56602166 27.71430593 37.9490662 29.88774382 40 33 C35.05343316 31.501494 30.60668218 29.44183999 26.01171875 27.12109375 C25.26791458 26.74896255 24.52411041 26.37683136 23.75776672 25.99342346 C22.19620108 25.21113745 20.63560206 24.42691918 19.07592773 23.64086914 C16.6798774 22.43365948 14.28064264 21.23297226 11.88085938 20.03320312 C10.36178906 19.27121219 8.84290221 18.5088554 7.32421875 17.74609375 C6.60449387 17.3856749 5.88476898 17.02525604 5.14323425 16.65391541 C0.11609488 14.11609488 0.11609488 14.11609488 -1 13 C-1.09873816 11.00200428 -1.12971799 9.00042842 -1.125 7 C-1.12757812 5.906875 -1.13015625 4.81375 -1.1328125 3.6875 C-1 1 -1 1 0 0 Z " fill="#5AA7C4" transform="translate(69,18)"/>
<path d="M0 0 C2.64 0 5.28 0 8 0 C8 10.56 8 21.12 8 32 C5.36 32 2.72 32 0 32 C0 21.44 0 10.88 0 0 Z " fill="#16739F" transform="translate(120,181)"/>
<path d="M0 0 C0 5.94 0 11.88 0 18 C1.98 18 3.96 18 6 18 C6.66 18.33 7.32 18.66 8 19 C8.33 18.34 8.66 17.68 9 17 C9.66 17 10.32 17 11 17 C11 19.31 11 21.62 11 24 C8.18743719 24.02684312 5.37512759 24.04676188 2.5625 24.0625 C1.76005859 24.07087891 0.95761719 24.07925781 0.13085938 24.08789062 C-1.91295221 24.0965143 -3.95683902 24.0522815 -6 24 C-7 23 -7 23 -7.1328125 20.5234375 C-7.09523045 5.37787056 -7.09523045 5.37787056 -4.0625 1.5625 C-2 0 -2 0 0 0 Z " fill="#1576A4" transform="translate(82,188)"/>
<path d="M0 0 C0.66 0.33 1.32 0.66 2 1 C2.7243251 4.68198591 3.00264691 6.45492701 2 10 C-1.1541367 13.69528761 -4.70865299 16.71529801 -8.47851562 19.76464844 C-10.45445703 21.36899111 -12.35082013 23.05593155 -14.25 24.75 C-15.49939357 25.83403266 -16.74940341 26.91735543 -18 28 C-19.50064092 29.31176715 -21.00064969 30.62425786 -22.5 31.9375 C-23.66666667 32.95833333 -24.83333333 33.97916667 -26 35 C-26 30.76870516 -23.62475058 28.63838792 -21.0625 25.5 C-20.56468018 24.87923584 -20.06686035 24.25847168 -19.55395508 23.61889648 C-18.04344857 21.73973868 -16.52286282 19.86915077 -15 18 C-14.15866016 16.9597923 -13.31749975 15.91943944 -12.4765625 14.87890625 C-8.39213391 9.85352568 -4.24118181 4.89367132 0 0 Z " fill="#5CA2BA" transform="translate(142,12)"/>
<path d="M0 0 C4.40534835 3.45353586 7.82209151 6.98174698 11.1875 11.4375 C12.13521581 12.66812346 13.08313913 13.89858713 14.03125 15.12890625 C14.51464844 15.76070801 14.99804688 16.39250977 15.49609375 17.04345703 C18.03196469 20.34255926 20.61186702 23.60691557 23.1875 26.875 C24.11868904 28.05973909 25.04969747 29.24462017 25.98046875 30.4296875 C26.64691406 31.27789062 27.31335938 32.12609375 28 33 C27.67 33.66 27.34 34.32 27 35 C26.5875 34.57589844 26.175 34.15179688 25.75 33.71484375 C22.68844143 30.60544832 19.58810807 27.57168321 16.3125 24.6875 C15.65894531 24.10871094 15.00539063 23.52992187 14.33203125 22.93359375 C12.55298563 21.45850568 10.70228563 20.0694127 8.82421875 18.72265625 C0.3825753 12.54201269 0.3825753 12.54201269 -0.765625 7.9140625 C-0.75153213 5.17299909 -0.55064002 2.68182086 0 0 Z " fill="#63A5BB" transform="translate(81,12)"/>
<path d="M0 0 C3.63 0 7.26 0 11 0 C10.67 0.99 10.34 1.98 10 3 C8.35 3.33 6.7 3.66 5 4 C5.33 4.33 5.66 4.66 6 5 C6.27818549 8.2834318 6.23177691 11.58117732 6.25 14.875 C6.270625 15.79925781 6.29125 16.72351563 6.3125 17.67578125 C6.31765625 18.56394531 6.3228125 19.45210937 6.328125 20.3671875 C6.3374707 21.18300293 6.34681641 21.99881836 6.35644531 22.83935547 C5.91732379 25.50115373 5.13050176 26.3927225 3 28 C2.34 28 1.68 28 1 28 C-0.35700647 25.28598706 -0.1123861 23.15153684 -0.09765625 20.1171875 C-0.09443359 18.95058594 -0.09121094 17.78398437 -0.08789062 16.58203125 C-0.07951172 15.35871094 -0.07113281 14.13539063 -0.0625 12.875 C-0.05798828 11.64394531 -0.05347656 10.41289062 -0.04882812 9.14453125 C-0.0370133 6.09630608 -0.02054028 3.04817686 0 0 Z " fill="#0E75A6" transform="translate(52,183)"/>
<path d="M0 0 C2.97 0.495 2.97 0.495 6 1 C6 1.66 6 2.32 6 3 C6.66 3 7.32 3 8 3 C8 6.63 8 10.26 8 14 C5.5211787 14.19389096 3.04219069 14.38040123 0.5625 14.5625 C-0.49807617 14.64661133 -0.49807617 14.64661133 -1.58007812 14.73242188 C-3.38427837 14.86190993 -5.19231952 14.93521608 -7 15 C-8 14 -8 14 -8.09765625 11.93359375 C-8.08605469 11.10988281 -8.07445312 10.28617188 -8.0625 9.4375 C-8.05347656 8.61121094 -8.04445312 7.78492188 -8.03515625 6.93359375 C-8.02355469 6.29550781 -8.01195312 5.65742188 -8 5 C-5.5625 5.375 -5.5625 5.375 -3 6 C-2.67 6.66 -2.34 7.32 -2 8 C0.02463255 8.65213292 0.02463255 8.65213292 2 9 C2 7.68 2 6.36 2 5 C1.34 5 0.68 5 0 5 C0 3.35 0 1.7 0 0 Z " fill="#0F76A6" transform="translate(164,197)"/>
<path d="M0 0 C1.4583982 0.00399197 2.91679743 0.01875035 4.375 0.04296875 C5.11234375 0.04361328 5.8496875 0.04425781 6.609375 0.04492188 C12.09398191 0.08995971 12.09398191 0.08995971 14.375 1.23046875 C14.375 8.82046875 14.375 16.41046875 14.375 24.23046875 C9.375 26.23046875 9.375 26.23046875 6.375 25.23046875 C6.375 19.29046875 6.375 13.35046875 6.375 7.23046875 C7.035 7.23046875 7.695 7.23046875 8.375 7.23046875 C8.375 12.51046875 8.375 17.79046875 8.375 23.23046875 C9.035 23.23046875 9.695 23.23046875 10.375 23.23046875 C10.375 22.57046875 10.375 21.91046875 10.375 21.23046875 C11.035 21.23046875 11.695 21.23046875 12.375 21.23046875 C12.375 14.96046875 12.375 8.69046875 12.375 2.23046875 C3.96 2.72546875 3.96 2.72546875 -4.625 3.23046875 C-4.625 7.52046875 -4.625 11.81046875 -4.625 16.23046875 C-4.955 16.23046875 -5.285 16.23046875 -5.625 16.23046875 C-5.67884521 13.93905589 -5.71772087 11.64728687 -5.75 9.35546875 C-5.77320312 8.07929688 -5.79640625 6.803125 -5.8203125 5.48828125 C-5.53748319 0.77068832 -4.68186713 0.29766181 0 0 Z " fill="#216F95" transform="translate(78.625,180.76953125)"/>
<path d="M0 0 C2 3.75 2 3.75 2 6 C2.99 6.33 3.98 6.66 5 7 C1.33893635 8.8798723 -2.32724183 10.74931187 -5.99853516 12.60913086 C-7.24739194 13.2436333 -8.49479935 13.88099674 -9.74072266 14.52124023 C-11.52906263 15.4395962 -13.32305146 16.34692588 -15.1171875 17.25390625 C-16.73536377 18.07870483 -16.73536377 18.07870483 -18.38623047 18.92016602 C-19.68004639 19.45468384 -19.68004639 19.45468384 -21 20 C-21.66 19.67 -22.32 19.34 -23 19 C-15.67978077 12.15898248 -8.00476453 6.00984672 0 0 Z " fill="#5DA1B8" transform="translate(138,31)"/>
<path d="M0 0 C0 0.33 0 0.66 0 1 C-2.01822917 1.42317708 -4.03645833 1.84635417 -6.0546875 2.26953125 C-8.37046549 2.92308838 -8.37046549 2.92308838 -10 6 C-10.18491553 9.02109652 -10.25206923 11.94876795 -10.22705078 14.96948242 C-10.22734283 15.88675613 -10.22763489 16.80402985 -10.22793579 17.74909973 C-10.22654111 20.7846519 -10.21097333 23.8199594 -10.1953125 26.85546875 C-10.19158286 28.95868292 -10.18873566 31.06189883 -10.18673706 33.16511536 C-10.17909673 38.70373319 -10.15944475 44.24224632 -10.1373291 49.78082275 C-10.11687932 55.43134138 -10.1077372 61.08187691 -10.09765625 66.73242188 C-10.07619928 77.82166062 -10.04205847 88.9108216 -10 100 C-9.34 100 -8.68 100 -8 100 C-8.33 101.98 -8.66 103.96 -9 106 C-11 105 -11 105 -12 102 C-12.09773464 100.66605375 -12.14334449 99.32786715 -12.15390015 97.99038696 C-12.16250061 97.17731583 -12.17110107 96.36424469 -12.17996216 95.52653503 C-12.18422211 94.63815445 -12.18848206 93.74977386 -12.19287109 92.83447266 C-12.20104858 91.8959697 -12.20922607 90.95746674 -12.21765137 89.99052429 C-12.24248496 86.88171019 -12.25901423 83.77294161 -12.2734375 80.6640625 C-12.27876118 79.60289593 -12.28408485 78.54172935 -12.28956985 77.44840622 C-12.31628972 71.83410108 -12.33567031 66.21981811 -12.35009766 60.60546875 C-12.36676305 54.80235539 -12.41156033 48.999808 -12.4624691 43.19690895 C-12.49609065 38.73767428 -12.50766938 34.27857499 -12.51332474 29.81922531 C-12.52004885 27.67975909 -12.53530083 25.54030214 -12.55921555 23.40095901 C-12.5907667 20.40827184 -12.59091905 17.41712561 -12.58349609 14.42431641 C-12.59990143 13.53998428 -12.61630676 12.65565216 -12.63320923 11.74452209 C-12.58873249 7.36709029 -12.40294485 5.53817833 -9.70181274 1.93051147 C-6.27472773 -0.51822483 -4.1209557 -0.40401526 0 0 Z " fill="#226F95" transform="translate(62,32)"/>
<path d="M0 0 C1.79244141 0.01740234 1.79244141 0.01740234 3.62109375 0.03515625 C5.41740234 0.04869141 5.41740234 0.04869141 7.25 0.0625 C8.17683594 0.07410156 9.10367188 0.08570313 10.05859375 0.09765625 C10.05859375 0.75765625 10.05859375 1.41765625 10.05859375 2.09765625 C9.39859375 2.09765625 8.73859375 2.09765625 8.05859375 2.09765625 C7.72859375 4.07765625 7.39859375 6.05765625 7.05859375 8.09765625 C8.37859375 8.09765625 9.69859375 8.09765625 11.05859375 8.09765625 C11.05859375 5.78765625 11.05859375 3.47765625 11.05859375 1.09765625 C11.38859375 1.09765625 11.71859375 1.09765625 12.05859375 1.09765625 C12.05859375 3.73765625 12.05859375 6.37765625 12.05859375 9.09765625 C9.74859375 9.42765625 7.43859375 9.75765625 5.05859375 10.09765625 C5.05859375 8.44765625 5.05859375 6.79765625 5.05859375 5.09765625 C3.40859375 5.09765625 1.75859375 5.09765625 0.05859375 5.09765625 C0.38859375 7.40765625 0.71859375 9.71765625 1.05859375 12.09765625 C0.39859375 12.09765625 -0.26140625 12.09765625 -0.94140625 12.09765625 C-0.94140625 12.75765625 -0.94140625 13.41765625 -0.94140625 14.09765625 C-1.93140625 13.76765625 -2.92140625 13.43765625 -3.94140625 13.09765625 C-3.96827178 11.11856227 -3.98774 9.13936654 -4.00390625 7.16015625 C-4.01550781 6.05800781 -4.02710938 4.95585937 -4.0390625 3.8203125 C-3.90306016 0.02856713 -3.81984841 0.126821 0 0 Z " fill="#0D76A8" transform="translate(160.94140625,181.90234375)"/>
<path d="M0 0 C5.55576043 4.1123064 11.00283043 8.33836084 16.375 12.6875 C17.08527344 13.25533203 17.79554687 13.82316406 18.52734375 14.40820312 C19.20667969 14.95798828 19.88601562 15.50777344 20.5859375 16.07421875 C21.1948584 16.56494873 21.8037793 17.05567871 22.43115234 17.5612793 C24 19 24 19 26 22 C20.1899059 20.32067048 14.99131421 17.60791608 9.625 14.875 C8.69816406 14.40707031 7.77132812 13.93914063 6.81640625 13.45703125 C4.54240594 12.30830944 2.27036718 11.15588119 0 10 C3.75 8.875 3.75 8.875 6 10 C6 9.34 6 8.68 6 8 C5.34 7.67 4.68 7.34 4 7 C0 2.41176471 0 2.41176471 0 0 Z " fill="#549FB5" transform="translate(83,29)"/>
<path d="M0 0 C1.46022163 0.95545366 2.91811468 1.91446678 4.375 2.875 C5.18710938 3.40867188 5.99921875 3.94234375 6.8359375 4.4921875 C10.86390629 7.29867839 10.86390629 7.29867839 11.484375 10.49609375 C11.57203125 11.46675781 11.6596875 12.43742188 11.75 13.4375 C11.89695313 14.88962891 11.89695313 14.88962891 12.046875 16.37109375 C12 19 12 19 10 22 C7.24858808 22.24905022 4.74330188 22.32673572 2 22.25 C0.89398438 22.24226563 0.89398438 22.24226563 -0.234375 22.234375 C-5.69055451 22.15472274 -5.69055451 22.15472274 -8 21 C-8.44921875 19.00390625 -8.44921875 19.00390625 -8.6875 16.5625 C-8.77386719 15.75941406 -8.86023438 14.95632812 -8.94921875 14.12890625 C-9 12 -9 12 -8 10 C-5.69 10 -3.38 10 -1 10 C-0.67 11.65 -0.34 13.3 0 15 C-0.33 14.01 -0.66 13.02 -1 12 C-2.98 12 -4.96 12 -7 12 C-7 14.64 -7 17.28 -7 20 C-1.72 20.33 3.56 20.66 9 21 C8.938125 18.916875 8.87625 16.83375 8.8125 14.6875 C8.77769531 13.51574219 8.74289063 12.34398437 8.70703125 11.13671875 C8.30035749 7.82976411 8.30035749 7.82976411 5.57421875 6.01953125 C4.72472656 5.68308594 3.87523437 5.34664062 3 5 C2.01 5.495 2.01 5.495 1 6 C0.67 4.02 0.34 2.04 0 0 Z " fill="#367C9C" transform="translate(140,191)"/>
<path d="M0 0 C1.47668858 0.0133035 2.95331108 0.03716415 4.4296875 0.0703125 C5.18378906 0.07933594 5.93789063 0.08835938 6.71484375 0.09765625 C8.57826004 0.1212438 10.44151343 0.15711531 12.3046875 0.1953125 C12.6346875 0.8553125 12.9646875 1.5153125 13.3046875 2.1953125 C7.6946875 2.1953125 2.0846875 2.1953125 -3.6953125 2.1953125 C-3.3653125 11.1053125 -3.0353125 20.0153125 -2.6953125 29.1953125 C-3.6853125 29.5253125 -4.6753125 29.8553125 -5.6953125 30.1953125 C-5.74470912 26.24434272 -5.78103005 22.2934922 -5.80517578 18.34228516 C-5.82019357 16.3361989 -5.84560231 14.33019926 -5.87109375 12.32421875 C-5.88076172 10.43896484 -5.88076172 10.43896484 -5.890625 8.515625 C-5.90109863 7.35305176 -5.91157227 6.19047852 -5.92236328 4.99267578 C-5.55967587 0.52421094 -4.38303811 0.23166163 0 0 Z " fill="#196B94" transform="translate(55.6953125,180.8046875)"/>
<path d="M0 0 C0 6.27 0 12.54 0 19 C-0.66 19 -1.32 19 -2 19 C-2 19.66 -2 20.32 -2 21 C-2.66 21 -3.32 21 -4 21 C-4.33 14.4 -4.66 7.8 -5 1 C-2 0 -2 0 0 0 Z " fill="#0C76A7" transform="translate(91,183)"/>
<path d="M0 0 C2.45840605 -0.02691685 4.91651882 -0.04679802 7.375 -0.0625 C8.07367188 -0.07087891 8.77234375 -0.07925781 9.4921875 -0.08789062 C14.7734375 -0.11328125 14.7734375 -0.11328125 17 1 C17 4.3 17 7.6 17 11 C13.71023192 12.09658936 12.28696233 11.79953138 9 11 C9 9.68 9 8.36 9 7 C8.01 6.67 7.02 6.34 6 6 C7.32 6 8.64 6 10 6 C10.33 6.66 10.66 7.32 11 8 C13.02463255 8.65213292 13.02463255 8.65213292 15 9 C15 6.69 15 4.38 15 2 C10.05 2 5.1 2 0 2 C0 1.34 0 0.68 0 0 Z " fill="#297395" transform="translate(134,181)"/>
<path d="M0 0 C1.65 0 3.3 0 5 0 C4.01 0.33 3.02 0.66 2 1 C2 2.32 2 3.64 2 5 C2.53625 5.2475 3.0725 5.495 3.625 5.75 C6.56424252 7.29696975 9.25754408 9.13014369 12 11 C9.13822943 12.43088528 7.06624227 11.59991697 4 11 C3.01 12.485 3.01 12.485 2 14 C0.35 12.68 -1.3 11.36 -3 10 C-2.34 9.01 -1.68 8.02 -1 7 C-0.34 7 0.32 7 1 7 C0.67 4.69 0.34 2.38 0 0 Z " fill="#1D78A0" transform="translate(161,187)"/>
<path d="M0 0 C0.33 0 0.66 0 1 0 C1 10.23 1 20.46 1 31 C-2.85006136 30.22998773 -5.00776573 29.6738858 -8.3125 27.9375 C-9.00988281 27.57527344 -9.70726563 27.21304688 -10.42578125 26.83984375 C-10.94527344 26.56269531 -11.46476562 26.28554687 -12 26 C-8.05979642 24.73913486 -5.52419701 25 -1 25 C-0.67 16.75 -0.34 8.5 0 0 Z " fill="#22749B" transform="translate(109,137)"/>
<path d="M0 0 C0.09765625 6.15234375 0.09765625 6.15234375 0 8 C-1 9 -1 9 -3.28515625 9.09765625 C-4.65994141 9.08025391 -4.65994141 9.08025391 -6.0625 9.0625 C-6.98160156 9.05347656 -7.90070312 9.04445312 -8.84765625 9.03515625 C-9.55792969 9.02355469 -10.26820312 9.01195312 -11 9 C-10.34 8.01 -9.68 7.02 -9 6 C-8.34 6 -7.68 6 -7 6 C-6.814375 4.7934375 -6.814375 4.7934375 -6.625 3.5625 C-6.41875 2.716875 -6.2125 1.87125 -6 1 C-4 0 -4 0 0 0 Z " fill="#0F76A5" transform="translate(69,202)"/>
<path d="M0 0 C2.97 0.495 2.97 0.495 6 1 C5.67 1.66 5.34 2.32 5 3 C4.01 2.67 3.02 2.34 2 2 C2 2.66 2 3.32 2 4 C3.32 4.33 4.64 4.66 6 5 C6 8 6 11 6 14 C4.68 13.67 3.36 13.34 2 13 C2.66 11.35 3.32 9.7 4 8 C1.48916886 9.25541557 1.12874554 10.50063488 0 13 C-1.36421031 10.27157939 -0.87807211 8.39046682 -0.5625 5.375 C-0.40974609 3.87066406 -0.40974609 3.87066406 -0.25390625 2.3359375 C-0.17011719 1.56507813 -0.08632812 0.79421875 0 0 Z " fill="#2682AC" transform="translate(132,182)"/>
<path d="M0 0 C4.26768447 3.10656672 7.20382899 6.55905094 10.3125 10.75 C10.76689453 11.35199219 11.22128906 11.95398438 11.68945312 12.57421875 C12.79857709 14.04526738 13.90008363 15.52205412 15 17 C14.67 17.66 14.34 18.32 14 19 C13.5875 18.57589844 13.175 18.15179688 12.75 17.71484375 C8.85824049 13.7622755 4.84154834 10.05744522 0.6015625 6.48046875 C-1 5 -1 5 -2 3 C-1.34 2.67 -0.68 2.34 0 2 C0 1.34 0 0.68 0 0 Z " fill="#5199B0" transform="translate(94,28)"/>
<path d="M0 0 C0.99 1.32 1.98 2.64 3 4 C1.5019913 7.81311305 -0.62648024 9.72483551 -4 12 C-6.8125 12.75 -6.8125 12.75 -9 13 C-7.06382979 6.29787234 -7.06382979 6.29787234 -4 4 C-3.34 4 -2.68 4 -2 4 C-1.34 2.68 -0.68 1.36 0 0 Z " fill="#5AA6C3" transform="translate(141,16)"/>
<path d="M0 0 C3.96 0 7.92 0 12 0 C12 0.66 12 1.32 12 2 C11.34 2 10.68 2 10 2 C9.67 3.98 9.34 5.96 9 8 C10.32 8 11.64 8 13 8 C13 5.69 13 3.38 13 1 C13.33 1 13.66 1 14 1 C14 3.64 14 6.28 14 9 C11.69 9.33 9.38 9.66 7 10 C7 8.35 7 6.7 7 5 C5.68 4.67 4.36 4.34 3 4 C3.66 4 4.32 4 5 4 C5 3.34 5 2.68 5 2 C3.35 1.67 1.7 1.34 0 1 C0 0.67 0 0.34 0 0 Z " fill="#0E719D" transform="translate(159,182)"/>
<path d="M0 0 C4.94515667 2.62711448 8.87775489 6.26645294 13 10 C12.01 10.495 12.01 10.495 11 11 C9.12060547 10.28735352 9.12060547 10.28735352 6.8671875 9.12890625 C6.06152344 8.71962891 5.25585938 8.31035156 4.42578125 7.88867188 C3.58402344 7.45103516 2.74226563 7.01339844 1.875 6.5625 C1.02550781 6.12873047 0.17601563 5.69496094 -0.69921875 5.24804688 C-2.80322092 4.17240532 -4.9031458 3.08949234 -7 2 C-7 1.67 -7 1.34 -7 1 C-5.35 1 -3.7 1 -2 1 C-2 1.66 -2 2.32 -2 3 C-1.34 2.67 -0.68 2.34 0 2 C0 1.34 0 0.68 0 0 Z " fill="#4B91A9" transform="translate(96,40)"/>
<path d="M0 0 C2.97 1.98 2.97 1.98 6 4 C4.0625 4.5625 4.0625 4.5625 2 5 C1.67 4.67 1.34 4.34 1 4 C1 5.32 1 6.64 1 8 C1.66 7.67 2.32 7.34 3 7 C3 8.65 3 10.3 3 12 C6.465 13.98 6.465 13.98 10 16 C10 16.66 10 17.32 10 18 C5.95611308 16.77742954 2.34829235 15.61426536 -1 13 C-1.5234375 10.1171875 -1.5234375 10.1171875 -1.375 6.875 C-1.34148437 5.79992187 -1.30796875 4.72484375 -1.2734375 3.6171875 C-1 1 -1 1 0 0 Z " fill="#569EB8" transform="translate(69,18)"/>
<path d="M0 0 C0 4.29 0 8.58 0 13 C-0.33 13 -0.66 13 -1 13 C-1.33 11.35 -1.66 9.7 -2 8 C-3.32 8 -4.64 8 -6 8 C-6.33 8.66 -6.66 9.32 -7 10 C-7.99 10 -8.98 10 -10 10 C-10.66 9.34 -11.32 8.68 -12 8 C-10.37982158 6.66081194 -8.75370657 5.3288031 -7.125 4 C-6.22007812 3.2575 -5.31515625 2.515 -4.3828125 1.75 C-2 0 -2 0 0 0 Z " fill="#64A4BC" transform="translate(156,18)"/>
<path d="M0 0 C0.66 0 1.32 0 2 0 C2 4.62 2 9.24 2 14 C0.68 14 -0.64 14 -2 14 C-2.33 14.99 -2.66 15.98 -3 17 C-4.32 16.34 -5.64 15.68 -7 15 C-7 14.34 -7 13.68 -7 13 C-3.53846154 10 -3.53846154 10 -1 10 C-1.020625 8.906875 -1.04125 7.81375 -1.0625 6.6875 C-1 3 -1 3 0 0 Z " fill="#6BADC9" transform="translate(170,108)"/>
<path d="M0 0 C2.875 0.5625 2.875 0.5625 4.54296875 2.23828125 C6.20315327 5.13508415 6.18087142 6.99810033 6.0625 10.3125 C6.03542969 11.29734375 6.00835937 12.2821875 5.98046875 13.296875 C5.94566406 14.04453125 5.91085938 14.7921875 5.875 15.5625 C5.215 15.5625 4.555 15.5625 3.875 15.5625 C3.88660156 14.95921875 3.89820313 14.3559375 3.91015625 13.734375 C3.91917969 12.93515625 3.92820313 12.1359375 3.9375 11.3125 C3.94910156 10.52359375 3.96070313 9.7346875 3.97265625 8.921875 C3.87885306 6.65558998 3.50741063 4.7336105 2.875 2.5625 C-0.49352515 2.5059891 -0.49352515 2.5059891 -4.125 3.5625 C-5.9794092 5.7856534 -6.91059244 7.89080337 -8.125 10.5625 C-8.785 10.5625 -9.445 10.5625 -10.125 10.5625 C-8.43051945 5.17097097 -5.81098067 1.04597652 0 0 Z " fill="#64A1B3" transform="translate(168.125,30.4375)"/>
<path d="M0 0 C0.53625 0.268125 1.0725 0.53625 1.625 0.8125 C0.4184375 1.18375 0.4184375 1.18375 -0.8125 1.5625 C-1.658125 1.975 -2.50375 2.3875 -3.375 2.8125 C-4.03679847 4.79295559 -4.03679847 4.79295559 -4.375 6.8125 C-5.365 7.4725 -6.355 8.1325 -7.375 8.8125 C-10.15752107 13.40365976 -9.18926921 17.76183015 -8.375 22.8125 C-9.035 22.4825 -9.695 22.1525 -10.375 21.8125 C-11.90910665 16.54117114 -11.64829769 11.62012867 -9.4609375 6.61328125 C-7.31058579 3.04741025 -4.45778522 -0.35193041 0 0 Z " fill="#65A1B6" transform="translate(147.375,41.1875)"/>
<path d="M0 0 C6.435 2.97 6.435 2.97 13 6 C12.01 7.485 12.01 7.485 11 9 C7.375 9.1875 7.375 9.1875 4 9 C3.34 6.69 2.68 4.38 2 2 C1.34 2 0.68 2 0 2 C0 1.34 0 0.68 0 0 Z " fill="#19749F" transform="translate(87,125)"/>
<path d="M0 0 C0.66 0.33 1.32 0.66 2 1 C2 3.31 2 5.62 2 8 C1.01 7.01 0.02 6.02 -1 5 C-3.62551393 7.48359426 -5.82148316 9.70247194 -7.6875 12.8125 C-8.120625 13.534375 -8.55375 14.25625 -9 15 C-9.66 15 -10.32 15 -11 15 C-11.33 15.99 -11.66 16.98 -12 18 C-12.66 17.67 -13.32 17.34 -14 17 C-9.43425277 11.24066911 -4.82286732 5.54629742 0 0 Z " fill="#69A5B8" transform="translate(142,12)"/>
<path d="M0 0 C0.33 0 0.66 0 1 0 C1 10.23 1 20.46 1 31 C-3.47851553 30.10429689 -4.77175056 29.74999027 -8 27 C-5.36 27.33 -2.72 27.66 0 28 C0 18.76 0 9.52 0 0 Z " fill="#25729A" transform="translate(109,57)"/>
<path d="M0 0 C1.26710868 2.53421737 1.28056176 4.19438238 1 7 C-3.34396892 9.89597928 -6.71405354 11.58541596 -12 12 C-15.875 11.0625 -15.875 11.0625 -19 10 C-19 9.67 -19 9.34 -19 9 C-13.32727273 8.87107438 -13.32727273 8.87107438 -10.9375 9.8125 C-10.298125 9.874375 -9.65875 9.93625 -9 10 C-5.529939 7.05044815 -2.77594418 3.59844616 0 0 Z " fill="#63A4BA" transform="translate(142,131)"/>
<path d="M0 0 C0.66 0.33 1.32 0.66 2 1 C2 4.3 2 7.6 2 11 C-1.13349732 12.04449911 -1.98968256 11.93423645 -5 11 C-3.02 10.67 -1.04 10.34 1 10 C-0.65 9.67 -2.3 9.34 -4 9 C-4.33 7.68 -4.66 6.36 -5 5 C-4.34 5 -3.68 5 -3 5 C-3 4.34 -3 3.68 -3 3 C-2.34 3 -1.68 3 -1 3 C-0.67 2.01 -0.34 1.02 0 0 Z " fill="#2A80A8" transform="translate(172,181)"/>
<path d="M0 0 C0.66 0.33 1.32 0.66 2 1 C1.67 1.33 1.34 1.66 1 2 C1.99 2.66 2.98 3.32 4 4 C2.04669132 5.03041513 0.08718472 6.0490893 -1.875 7.0625 C-2.96554688 7.63097656 -4.05609375 8.19945312 -5.1796875 8.78515625 C-6.11039062 9.18605469 -7.04109375 9.58695313 -8 10 C-8.66 9.67 -9.32 9.34 -10 9 C-6.7 6.03 -3.4 3.06 0 0 Z " fill="#5898B0" transform="translate(125,41)"/>
<path d="M0 0 C3 1 3 1 4 3 C4.12240135 4.76770327 4.17551153 6.54060462 4.1875 8.3125 C4.20167969 9.25738281 4.21585938 10.20226562 4.23046875 11.17578125 C3.98824335 14.14406882 3.24026607 16.30867165 2 19 C1.67 18.34 1.34 17.68 1 17 C0.34 17 -0.32 17 -1 17 C-0.34 15.02 0.32 13.04 1 11 C1.66 11 2.32 11 3 11 C2.690625 9.741875 2.38125 8.48375 2.0625 7.1875 C1.88847656 6.47980469 1.71445313 5.77210937 1.53515625 5.04296875 C1.08989295 3.34316798 0.55566015 1.66698046 0 0 Z " fill="#5FA3BB" transform="translate(170,61)"/>
<path d="M0 0 C6.435 2.97 6.435 2.97 13 6 C11.68 6.99 10.36 7.98 9 9 C5.18063472 7.44396229 2.73955562 5.04395069 0 2 C0 1.34 0 0.68 0 0 Z " fill="#1F769E" transform="translate(89,46)"/>
<path d="M0 0 C0.33 0.99 0.66 1.98 1 3 C0.01 3.495 0.01 3.495 -1 4 C-1.99 5.485 -1.99 5.485 -3 7 C-3.33 6.01 -3.66 5.02 -4 4 C-5.98 4 -7.96 4 -10 4 C-10 3.34 -10 2.68 -10 2 C-6.3558226 -0.4294516 -4.28758728 -0.16179575 0 0 Z " fill="#61A3BB" transform="translate(130,81)"/>
<path d="M0 0 C0.66 0 1.32 0 2 0 C1.67 1.98 1.34 3.96 1 6 C1.66 6.33 2.32 6.66 3 7 C2.34 7.66 1.68 8.32 1 9 C0.83322718 12.58343976 0.83322718 12.58343976 1 16 C-1.87592677 13.12407323 -1.96378971 9.91071092 -2 6 C-1.0625 2.5 -1.0625 2.5 0 0 Z " fill="#609FB9" transform="translate(116,118)"/>
<path d="M0 0 C1.32 0.66 2.64 1.32 4 2 C3.67 2.33 3.34 2.66 3 3 C2.75579878 5.77665837 2.61611813 8.55216999 2.4765625 11.3359375 C1.95141021 14.27162488 1.30376853 15.18901618 -1 17 C-1.99 16.67 -2.98 16.34 -4 16 C-3.2884375 15.1028125 -3.2884375 15.1028125 -2.5625 14.1875 C-0.19343167 10.87080434 0.11991784 8.27433083 0.0625 4.3125 C0.05347656 3.50425781 0.04445312 2.69601563 0.03515625 1.86328125 C0.02355469 1.24839844 0.01195312 0.63351563 0 0 Z " fill="#6BA9BD" transform="translate(139,65)"/>
<path d="M0 0 C2.97 0.495 2.97 0.495 6 1 C4.6190998 4.33717549 3.1798762 6.22301036 0 8 C-2.25 7.6875 -2.25 7.6875 -4 7 C-3.01 6.67 -2.02 6.34 -1 6 C-0.67 4.02 -0.34 2.04 0 0 Z " fill="#5EA2BB" transform="translate(124,98)"/>
<path d="M0 0 C0.33 0.66 0.66 1.32 1 2 C0.690625 2.86625 0.38125 3.7325 0.0625 4.625 C-1.24787528 8.78736852 -1.35675918 11.64753802 -1 16 C0.33358994 18.009245 0.33358994 18.009245 2 19 C0.68 19 -0.64 19 -2 19 C-3.95907329 15.08185342 -3.36124833 10.28079274 -3 6 C-1.5 2.3125 -1.5 2.3125 0 0 Z " fill="#659FB1" transform="translate(119,85)"/>
<path d="M0 0 C0.66 0.33 1.32 0.66 2 1 C2 2.65 2 4.3 2 6 C0.35 6 -1.3 6 -3 6 C-3.66 4.35 -4.32 2.7 -5 1 C-2.525 1.495 -2.525 1.495 0 2 C0 1.34 0 0.68 0 0 Z " fill="#0A76A9" transform="translate(90,205)"/>
<path d="M0 0 C2.31 0 4.62 0 7 0 C7.33 1.65 7.66 3.3 8 5 C7.5875 4.525625 7.175 4.05125 6.75 3.5625 C4.86673565 1.63715751 4.86673565 1.63715751 1 1 C1.33 4.63 1.66 8.26 2 12 C-1 9 -1 9 -1.07421875 6.73828125 C-0.94660156 5.93777344 -0.81898438 5.13726562 -0.6875 4.3125 C-0.56761719 3.50425781 -0.44773438 2.69601563 -0.32421875 1.86328125 C-0.21722656 1.24839844 -0.11023438 0.63351563 0 0 Z " fill="#44809D" transform="translate(155,201)"/>
<path d="M0 0 C-0.33 0.99 -0.66 1.98 -1 3 C-0.34 3.33 0.32 3.66 1 4 C1 4.66 1 5.32 1 6 C-2.91211733 4.84414715 -5.8745041 3.64465038 -9 1 C-3.375 -1.125 -3.375 -1.125 0 0 Z " fill="#1D749A" transform="translate(96,76)"/>
<path d="M0 0 C6.52464229 0.48330684 6.52464229 0.48330684 8.4375 2.5625 C9.25383472 6.09995046 9.12094463 9.37166099 9 13 C8.67 13 8.34 13 8 13 C7.67 10.36 7.34 7.72 7 5 C6.34 5 5.68 5 5 5 C4.67 4.34 4.34 3.68 4 3 C3.34 3 2.68 3 2 3 C2 2.34 2 1.68 2 1 C1.34 0.67 0.68 0.34 0 0 Z " fill="#5A9EB5" transform="translate(123,52)"/>
<path d="M0 0 C2.97 0 5.94 0 9 0 C9 3.3 9 6.6 9 10 C8.01 10.495 8.01 10.495 7 11 C7.33 7.7 7.66 4.4 8 1 C6.02 1.33 4.04 1.66 2 2 C2 2.66 2 3.32 2 4 C1.34 4 0.68 4 0 4 C0 2.68 0 1.36 0 0 Z " fill="#3A7B97" transform="translate(61,201)"/>
<path d="M0 0 C1.65 1.65 3.3 3.3 5 5 C4.34 5.66 3.68 6.32 3 7 C2.67 7.99 2.34 8.98 2 10 C1.34 10 0.68 10 0 10 C0 6.7 0 3.4 0 0 Z " fill="#66A0B7" transform="translate(81,12)"/>
<path d="M0 0 C0.66 0.33 1.32 0.66 2 1 C2 2.98 2 4.96 2 7 C0.02 7.99 0.02 7.99 -2 9 C-2.125 5.625 -2.125 5.625 -2 2 C-1.34 1.34 -0.68 0.68 0 0 Z " fill="#0B77A9" transform="translate(113,198)"/>
<path d="M0 0 C0.99 0 1.98 0 3 0 C2.38461538 5.53846154 2.38461538 5.53846154 0.4375 7.875 C-0.036875 8.24625 -0.51125 8.6175 -1 9 C-1.625 5.625 -1.625 5.625 -2 2 C-1.34 1.34 -0.68 0.68 0 0 Z " fill="#63A5BD" transform="translate(150,112)"/>
<path d="M0 0 C0.33 0 0.66 0 1 0 C0.58846263 4.97093824 0.20399168 9.44508386 -2 14 C-2.99 13.67 -3.98 13.34 -5 13 C-5 12.01 -5 11.02 -5 10 C-4.01 10 -3.02 10 -2 10 C-1.855625 8.906875 -1.71125 7.81375 -1.5625 6.6875 C-1 3 -1 3 0 0 Z " fill="#63A4B6" transform="translate(153,48)"/>
<path d="M0 0 C0.33 0 0.66 0 1 0 C1 3.3 1 6.6 1 10 C-3 8 -3 8 -4 6 C-2.68 6 -1.36 6 0 6 C-0.185625 5.38125 -0.37125 4.7625 -0.5625 4.125 C-1 2 -1 2 0 0 Z M-6 9 C-5.01 9.33 -4.02 9.66 -3 10 C-3.33 10.66 -3.66 11.32 -4 12 C-4.66 11.67 -5.32 11.34 -6 11 C-6 10.34 -6 9.68 -6 9 Z " fill="#5DAAC8" transform="translate(154,20)"/>
<path d="M0 0 C0.66 0.33 1.32 0.66 2 1 C1.67 1.66 1.34 2.32 1 3 C0.81509993 5.32357511 0.81509993 5.32357511 3 8 C-0.91211733 6.84414715 -3.8745041 5.64465038 -7 3 C-6.21625 2.87625 -5.4325 2.7525 -4.625 2.625 C-1.85942178 2.20882007 -1.85942178 2.20882007 0 0 Z " fill="#1F7198" transform="translate(94,154)"/>
<path d="M0 0 C2.31 0.66 4.62 1.32 7 2 C7 2.66 7 3.32 7 4 C8.32 4 9.64 4 11 4 C10.67 4.99 10.34 5.98 10 7 C8.51719804 6.21516341 7.0388502 5.42190666 5.5625 4.625 C4.73878906 4.18414062 3.91507813 3.74328125 3.06640625 3.2890625 C1 2 1 2 0 0 Z " fill="#227097" transform="translate(53,139)"/>
<path d="M0 0 C0.99 0.33 1.98 0.66 3 1 C3 4 3 4 2 7 C1.01 7.33 0.02 7.66 -1 8 C-1.66 7.01 -2.32 6.02 -3 5 C-2.34 4.67 -1.68 4.34 -1 4 C-0.34786708 1.97536745 -0.34786708 1.97536745 0 0 Z " fill="#6DAEC8" transform="translate(84,17)"/>
<path d="M0 0 C2.97 1.98 2.97 1.98 6 4 C4.0625 4.5625 4.0625 4.5625 2 5 C1.67 4.67 1.34 4.34 1 4 C0.67 6.31 0.34 8.62 0 11 C-0.33 11 -0.66 11 -1 11 C-1.02688151 9.35425434 -1.04634123 7.70838587 -1.0625 6.0625 C-1.07410156 5.14597656 -1.08570312 4.22945312 -1.09765625 3.28515625 C-1 1 -1 1 0 0 Z " fill="#65A0B4" transform="translate(69,18)"/>
<path d="M0 0 C4 0 4 0 7 2 C6.67 2.66 6.34 3.32 6 4 C6.99 4 7.98 4 9 4 C8.67 5.65 8.34 7.3 8 9 C7.938125 8.38125 7.87625 7.7625 7.8125 7.125 C7.544375 6.42375 7.27625 5.7225 7 5 C5.35448038 4.28272222 3.68577711 3.61674772 2 3 C1.34 2.01 0.68 1.02 0 0 Z " fill="#22759F" transform="translate(136,197)"/>
<path d="M0 0 C0.99 0.99 1.98 1.98 3 3 C2.01 4.485 2.01 4.485 1 6 C-1.97 5.505 -1.97 5.505 -5 5 C-4.01 4.67 -3.02 4.34 -2 4 C-2 3.01 -2 2.02 -2 1 C-1.34 0.67 -0.68 0.34 0 0 Z " fill="#60ACC9" transform="translate(165,81)"/>
<path d="M0 0 C0.33 0 0.66 0 1 0 C1 1.65 1 3.3 1 5 C1.99 5 2.98 5 4 5 C4 3.35 4 1.7 4 0 C4.66 0.33 5.32 0.66 6 1 C6 2.65 6 4.3 6 6 C3 7 3 7 0 6 C0 4.02 0 2.04 0 0 Z " fill="#196E92" transform="translate(104,188)"/>
<path d="M0 0 C1.98 0 3.96 0 6 0 C5.01 1.485 5.01 1.485 4 3 C3.01 3 2.02 3 1 3 C1.33 4.32 1.66 5.64 2 7 C1.01 7.495 1.01 7.495 0 8 C0 5.36 0 2.72 0 0 Z " fill="#0A749D" transform="translate(133,203)"/>
<path d="M0 0 C0.33 1.32 0.66 2.64 1 4 C-1.31 5.65 -3.62 7.3 -6 9 C-4.68775452 5.06326356 -3.08089673 2.77280706 0 0 Z " fill="#5D97AB" transform="translate(121,38)"/>
<path d="M0 0 C4.875 4.5 4.875 4.5 6 9 C3.69 7.02 1.38 5.04 -1 3 C-0.67 2.01 -0.34 1.02 0 0 Z " fill="#5595A6" transform="translate(103,38)"/>
<path d="M0 0 C0.99 0 1.98 0 3 0 C2.67 1.98 2.34 3.96 2 6 C0.68 5.34 -0.64 4.68 -2 4 C-1.34 3.67 -0.68 3.34 0 3 C0 2.01 0 1.02 0 0 Z " fill="#68A6C3" transform="translate(150,142)"/>
<path d="M0 0 C1.65 0 3.3 0 5 0 C5 0.99 5 1.98 5 3 C1.25 4.125 1.25 4.125 -1 3 C-0.67 2.01 -0.34 1.02 0 0 Z " fill="#5EA0B2" transform="translate(145,129)"/>
<path d="M0 0 C0.99 0.33 1.98 0.66 3 1 C0.75 3.0625 0.75 3.0625 -2 5 C-4.3125 4.75 -4.3125 4.75 -6 4 C-4 2.66666667 -2 1.33333333 0 0 Z " fill="#64A7B7" transform="translate(125,131)"/>
<path d="M0 0 C0.99 0.33 1.98 0.66 3 1 C3 1.66 3 2.32 3 3 C4.32 3.33 5.64 3.66 7 4 C7 4.33 7 4.66 7 5 C4.69 4.67 2.38 4.34 0 4 C-0.33 3.01 -0.66 2.02 -1 1 C-0.67 0.67 -0.34 0.34 0 0 Z " fill="#60A0B8" transform="translate(159,51)"/>
<path d="M0 0 C2.99324263 1.0975223 3.84610901 1.67682892 5.25 4.625 C5.4975 5.40875 5.745 6.1925 6 7 C3.00675737 5.9024777 2.15389099 5.32317108 0.75 2.375 C0.5025 1.59125 0.255 0.8075 0 0 Z " fill="#57A7C7" transform="translate(89,25)"/>
<path d="M0 0 C1.98 0 3.96 0 6 0 C6.66 1.32 7.32 2.64 8 4 C2.25 2.25 2.25 2.25 0 0 Z " fill="#247598" transform="translate(79,73)"/>
<path d="M0 0 C0 0.66 0 1.32 0 2 C-0.99 2.33 -1.98 2.66 -3 3 C-3.33 3.66 -3.66 4.32 -4 5 C-5.32 4.67 -6.64 4.34 -8 4 C-3.375 0 -3.375 0 0 0 Z " fill="#50A3C6" transform="translate(133,39)"/>
</svg>
